<?xml version="1.0" standalone="no"?>
<!DOCTYPE svg PUBLIC "-//W3C//DTD SVG 20010904//EN"
 "http://www.w3.org/TR/2001/REC-SVG-20010904/DTD/svg10.dtd">
<svg version="1.0" xmlns="http://www.w3.org/2000/svg"
 width="799.718765pt" height="800.096560pt" viewBox="0 0 799.718765 800.096560"
 preserveAspectRatio="xMidYMid meet">
<metadata>
Created by potrace 1.12, written by Peter Selinger 2001-2015
</metadata>
<g transform="translate(-30.000000,860.632809) scale(0.100000,-0.100000)"
fill="#000000" stroke="none">
<path d="M4140 8604 c-25 -2 -106 -8 -180 -14 -787 -63 -1577 -385 -2195 -896
-324 -267 -559 -525 -782 -859 -368 -549 -585 -1142 -658 -1795 -8 -74 -15
-156 -15 -182 l0 -48 35 0 35 0 0 -205 0 -205 -40 0 c-22 0 -40 -2 -40 -4 0
-35 35 -342 50 -431 174 -1082 788 -2047 1695 -2664 186 -127 468 -283 640
-356 303 -128 507 -193 790 -254 458 -98 963 -112 1425 -40 1126 176 2108 804
2737 1749 265 400 469 884 568 1351 42 196 85 505 85 612 0 36 -1 37 -35 37
l-35 0 0 205 0 205 40 0 c37 0 40 2 36 23 -3 12 -7 60 -11 107 -33 463 -174
978 -391 1421 -247 505 -605 962 -1034 1321 -604 505 -1363 822 -2162 903
-144 15 -475 26 -558 19z m422 -2918 c442 -112 768 -465 838 -908 18 -110 8
-341 -18 -440 -57 -213 -143 -362 -300 -521 -330 -336 -847 -420 -1277 -207
-242 120 -437 329 -535 573 -65 163 -74 214 -74 422 0 208 9 259 74 422 144
360 494 630 885 682 110 15 299 4 407 -23z m-1436 -1499 c107 -306 366 -587
662 -717 192 -85 359 -116 572 -107 311 14 576 128 804 346 135 130 252 309
310 478 l24 68 1257 3 1257 2 -7 -67 c-12 -116 -53 -349 -85 -479 -130 -528
-375 -1021 -724 -1459 -113 -142 -418 -444 -566 -561 -874 -692 -1978 -962
-3055 -748 -1370 273 -2477 1290 -2859 2627 -63 217 -126 543 -126 650 l0 37
1256 -2 1256 -3 24 -68z"/>
<path d="M4165 5510 c-196 -31 -386 -130 -521 -271 -171 -180 -254 -387 -254
-634 0 -247 83 -454 254 -634 112 -117 268 -208 433 -253 112 -30 334 -30 448
1 224 60 416 199 543 394 190 292 190 692 0 984 -167 256 -431 407 -733 418
-60 2 -137 0 -170 -5z m323 -110 c275 -66 499 -269 586 -532 178 -534 -212
-1078 -774 -1078 -564 0 -956 550 -772 1084 90 261 308 459 579 525 108 27
271 27 381 1z"/>
</g>
</svg>
